<svg xmlns="http://www.w3.org/2000/svg" viewBox="0 0 816 732">
  <g fill="currentColor">
    <path d="M80.585 729.893c-39.218-5.72-69.824-34.23-77.697-72.375-3.657-17.714-1.642-38.211 5.33-54.228 1.866-4.284 40.225-71.465 85.244-149.29 45.019-77.825 116.715-201.8 159.324-275.5 42.61-73.7 78.855-136.025 80.546-138.5C358.079 3.765 408.928-9.15 448.5 10.751c13.645 6.862 24.923 16.171 33.365 27.54 2.127 2.865 18.402 30.409 36.166 61.209 28.34 49.138 105.543 182.663 246.02 425.5 22.748 39.325 42.867 75.21 44.708 79.746 4.74 11.678 6.475 20.857 6.475 34.254 0 19.152-4.844 35.31-15.246 50.852-14.927 22.303-38.395 36.754-65.134 40.107-10.275 1.288-645.422 1.225-654.27-.066zM365 620.508v-15.492l-59.87-.258-59.87-.258 80.506-46.5c44.28-25.575 81.117-46.645 81.863-46.822.745-.177 37.841 20.748 82.434 46.5l81.08 46.822-60.072.258-60.071.258V636h268.198l-1.91-3.25c-1.05-1.788-31.07-53.763-66.71-115.5-35.64-61.737-65.313-112.238-65.94-112.223-1.955.045-26.15 14.561-25.907 15.542.128.512 12.953 22.942 28.5 49.844 15.548 26.902 28.886 50.04 29.64 51.42l1.371 2.507-3.37-1.965c-1.855-1.081-38.584-22.14-81.622-46.8L455 430.741l.004-94.12c.004-91.614.052-94.041 1.833-91.121 1.006 1.65 14.034 24.15 28.951 50s27.705 47.78 28.417 48.734c1.19 1.591 2.358 1.114 14.295-5.845 7.15-4.168 13.15-7.723 13.333-7.9.483-.466-132.997-231.496-133.722-231.45-.74.049-132.484 228.375-132.913 230.353-.19.873 4.619 4.248 12.878 9.039 7.25 4.205 13.303 7.516 13.451 7.357.15-.158 13.642-23.463 29.985-51.788 16.343-28.325 29.888-51.687 30.101-51.917.213-.229.38 42.071.372 94l-.016 94.417-81.234 46.592c-44.68 25.626-81.385 46.476-81.568 46.334-.183-.143 12.728-22.909 28.692-50.592 15.964-27.684 29.275-51.009 29.58-51.834.405-1.097-3.057-3.556-12.884-9.15l-13.438-7.651-66.558 115.293C127.95 582.903 98 635.06 98 635.392c0 .335 60.075.608 133.5.608H365Z" />
  </g>
</svg>
